<svg width="204" height="101" viewBox="0 0 204 101" fill="none" xmlns="http://www.w3.org/2000/svg">
<mask id="mask0_113_260" style="mask-type:luminance" maskUnits="userSpaceOnUse" x="22" y="22" width="56" height="56">
<path d="M25.4346 40.978H74.6551L69.2149 74.6552H30.8747L25.4346 40.978Z" fill="white" stroke="white" stroke-width="5.18111" stroke-linecap="round" stroke-linejoin="round"/>
<path d="M64.293 40.9779C64.293 32.3941 57.9137 25.4346 50.0449 25.4346C42.1761 25.4346 35.7969 32.3941 35.7969 40.9779" stroke="white" stroke-width="5.18111" stroke-linecap="round" stroke-linejoin="round"/>
<path d="M40.9778 55.226C42.4085 55.226 43.5683 54.0662 43.5683 52.6355C43.5683 51.2048 42.4085 50.0449 40.9778 50.0449C39.547 50.0449 38.3872 51.2048 38.3872 52.6355C38.3872 54.0662 39.547 55.226 40.9778 55.226Z" fill="black"/>
<path d="M42.2729 61.7021C42.2729 61.7021 44.8635 65.588 50.0446 65.588C55.2257 65.588 57.8163 61.7021 57.8163 61.7021" stroke="black" stroke-width="5.18111" stroke-linecap="round" stroke-linejoin="round"/>
<path d="M59.1115 55.226C60.5423 55.226 61.7021 54.0662 61.7021 52.6355C61.7021 51.2048 60.5423 50.0449 59.1115 50.0449C57.6808 50.0449 56.521 51.2048 56.521 52.6355C56.521 54.0662 57.6808 55.226 59.1115 55.226Z" fill="black"/>
</mask>
<g mask="url(#mask0_113_260)">
<path d="M18.958 18.958H81.1313V81.1313H18.958V18.958Z" fill="#F83758"/>
</g>
<path d="M104.724 43.0377C103.594 43.0377 102.664 42.7111 101.936 42.058C101.232 41.3797 100.881 40.5507 100.881 39.571C100.881 38.5662 101.232 37.7372 101.936 37.0841C102.664 36.4059 103.594 36.0667 104.724 36.0667C105.83 36.0667 106.734 36.4059 107.437 37.0841C108.166 37.7372 108.53 38.5662 108.53 39.571C108.53 40.5507 108.166 41.3797 107.437 42.058C106.734 42.7111 105.83 43.0377 104.724 43.0377ZM107.927 45.2232V66.249H101.484V45.2232H107.927ZM128.611 52.6839C130.143 53.0105 131.374 53.7767 132.304 54.9825C133.233 56.1631 133.698 57.5196 133.698 59.052C133.698 61.2626 132.919 63.021 131.362 64.3273C129.829 65.6085 127.681 66.249 124.918 66.249H112.597V39.7971H124.504C127.192 39.7971 129.289 40.4126 130.796 41.6435C132.329 42.8744 133.095 44.5449 133.095 46.655C133.095 48.2125 132.68 49.5062 131.851 50.5361C131.048 51.5661 129.967 52.282 128.611 52.6839ZM119.04 50.4985H123.26C124.315 50.4985 125.119 50.2724 125.672 49.8202C126.25 49.3429 126.538 48.6521 126.538 47.7478C126.538 46.8434 126.25 46.1526 125.672 45.6753C125.119 45.198 124.315 44.9594 123.26 44.9594H119.04V50.4985ZM123.788 61.0491C124.868 61.0491 125.697 60.8104 126.275 60.3331C126.878 59.8307 127.179 59.1148 127.179 58.1853C127.179 57.2559 126.865 56.5274 126.237 55.9999C125.634 55.4723 124.793 55.2086 123.712 55.2086H119.04V61.0491H123.788ZM158.197 45.2232V66.249H151.754V63.3853C151.101 64.3147 150.209 65.0684 149.078 65.6461C147.973 66.1988 146.742 66.4751 145.386 66.4751C143.778 66.4751 142.359 66.1234 141.128 65.42C139.897 64.6916 138.942 63.6491 138.264 62.2925C137.586 60.936 137.247 59.3409 137.247 57.5071V45.2232H143.652V56.6404C143.652 58.0472 144.017 59.1399 144.745 59.9187C145.474 60.6974 146.453 61.0868 147.684 61.0868C148.94 61.0868 149.932 60.6974 150.661 59.9187C151.389 59.1399 151.754 58.0472 151.754 56.6404V45.2232H158.197ZM184.303 45.2232L171.115 76.2344H164.182L169.005 65.5331L160.451 45.2232H167.648L172.509 58.3737L177.332 45.2232H184.303Z" fill="#F83758"/>
</svg>
